<svg version="1.1" id="Uploaded to svgrepo.com"
    xmlns="http://www.w3.org/2000/svg"
    xmlns:xlink="http://www.w3.org/1999/xlink" width="30px" height="30px" viewBox="0 0 32 32" xml:space="preserve">
    <style type="text/css">
	.pictogram_zes{fill:#0C6667;}
	.pictogram_vijf{fill:#01A59C;}
	.pictogram_twee{fill:#F8AD89;}
	.pictogram_een{fill:#F4D6B0;}
	.st0{fill:none;}
	.st1{fill:#E54D2E;}
	.st2{fill:#F27261;}
    </style>
    <g>
        <circle class="pictogram_een" cx="16" cy="16" r="16"/>
        <path class="pictogram_twee" d="M4,16c0,6.627,5.373,12,12,12V4C9.373,4,4,9.373,4,16z"/>
        <path class="pictogram_vijf" d="M16,0v4c6.627,0,12,5.373,12,12c0,6.627-5.373,12-12,12v4c8.837,0,16-7.163,16-16S24.837,0,16,0z" />
        <path class="pictogram_vijf" d="M16,0v4c6.627,0,12,5.373,12,12c0,6.627-5.373,12-12,12v4c8.837,0,16-7.163,16-16S24.837,0,16,0z" />
        <path class="pictogram_zes" d="M16,28v4C7.163,32,0,24.837,0,16S7.163,0,16,0v4C9.373,4,4,9.373,4,16C4,22.627,9.373,28,16,28z
		 M22,14h-4.5V9.5C17.5,8.672,16.828,8,16,8s-1.5,0.672-1.5,1.5V14H10c-0.828,0-1.5,0.672-1.5,1.5S9.172,17,10,17h4.5v4.5
		c0,0.828,0.672,1.5,1.5,1.5s1.5-0.672,1.5-1.5V17H22c0.828,0,1.5-0.672,1.5-1.5S22.828,14,22,14z"/>
    </g>
</svg>

<svg width="40px" height="40px" viewBox="0 -0.5 17 17" version="1.1"
    xmlns="http://www.w3.org/2000/svg"
    xmlns:xlink="http://www.w3.org/1999/xlink" class="si-glyph si-glyph-folder-error">
    <title>938</title>
    <defs>
    </defs>
    <g stroke="none" stroke-width="1" fill="none" fill-rule="evenodd">
        <g transform="translate(1.000000, 2.000000)" fill="#fff">
            <path d="M7.35,3 L5.788,0.042 L2.021,0.042 L2.021,1.063 L0.023,1.063 L0.023,10.976 L1.043,10.976 L1.045,11.976 L15.947,11.976 L15.968,3 L7.35,3 L7.35,3 Z M10.918,9.109 L10.09,9.938 L8.512,8.361 L6.934,9.938 L6.104,9.109 L7.682,7.531 L6.104,5.953 L6.934,5.125 L8.512,6.701 L10.088,5.125 L10.918,5.953 L9.34,7.531 L10.918,9.109 L10.918,9.109 Z" class="si-glyph-fill"></path>
            <path d="M13.964,1.982 L13.964,1.042 L8.024,1.042 L8.354,1.982 L13.964,1.982 Z" class="si-glyph-fill"></path>
        </g>
    </g>
</svg>    